<svg xmlns="http://www.w3.org/2000/svg" viewBox="0 0 58 64" fill="none" class="h-11"><path d="M51.4477 16.6478L52.2994 15.13L29.9227 2.57413C28.7859 1.93623 27.3989 1.93623 26.2621 2.57413L3.88541 15.13C2.70571 15.7919 1.97534 17.0392 1.97534 18.392V45.7414C1.97534 47.0998 2.71179 48.3514 3.89924 49.0111L26.2759 61.4426C27.4056 62.0702 28.7792 62.0702 29.9089 61.4426L52.2856 49.0111C53.473 48.3514 54.2095 47.0998 54.2095 45.7414V18.392C54.2095 17.0392 53.4791 15.7919 52.2994 15.13L51.4477 16.6478Z" fill="white" stroke="white" stroke-width="4" stroke-linejoin="round"></path><path d="M5.71387 18.4727L28.0627 30.8887V58.2041L5.71387 45.788V18.4727Z" fill="black" fill-opacity="0.01"></path><path d="M50.4119 18.4727L28.0631 30.8887V58.2041L50.4119 45.788V18.4727Z" fill="black" fill-opacity="0.01"></path><path fill-rule="evenodd" clip-rule="evenodd" d="M6.5575 16.9531C6.01912 16.654 5.36265 16.6621 4.83183 16.9745C4.30101 17.2868 3.9751 17.8567 3.9751 18.4726V45.788C3.9751 46.4193 4.31734 47.0009 4.86917 47.3075L27.218 59.7236C27.7564 60.0227 28.4128 60.0146 28.9437 59.7022C29.4745 59.3899 29.8004 58.82 29.8004 58.2041V30.8887C29.8004 30.2574 29.4582 29.6758 28.9063 29.3692L6.5575 16.9531ZM7.45158 24.803C7.45158 23.2883 9.0788 22.3308 10.4029 23.0664L25.3021 31.3438C25.9328 31.6942 26.3239 32.3589 26.3239 33.0804V42.6978C26.3239 44.2126 24.6967 45.17 23.3726 44.4344L18.1008 41.5056C16.7767 40.77 15.1495 41.7275 15.1495 43.2422V45.7378C15.1495 47.2202 13.557 48.1572 12.2612 47.4373L8.47338 45.3329C7.84272 44.9825 7.45158 44.3178 7.45158 43.5963V24.803Z" fill="black"></path><path fill-rule="evenodd" clip-rule="evenodd" d="M15.2119 34.2427C15.2119 32.9348 16.616 32.1071 17.7604 32.7404L20.6935 34.3636C21.2567 34.6752 21.6062 35.2681 21.6062 35.9117C21.6062 37.201 20.2234 38.018 19.0941 37.3958L16.1005 35.7467C15.5524 35.4448 15.2119 34.8685 15.2119 34.2427Z" fill="black"></path><path d="M28.4494 11.0191C28.7933 10.8327 28.7967 10.3403 28.4554 10.1492L28.179 9.99441C27.8754 9.82439 27.505 9.82564 27.2025 9.99771L24.9079 11.3032C24.5692 11.4959 24.5743 11.9859 24.917 12.1715L25.1471 12.2962C25.4423 12.4561 25.7984 12.4561 26.0935 12.2961L28.4494 11.0191Z" fill="black"></path><path fill-rule="evenodd" clip-rule="evenodd" d="M52.1494 18.4775C52.1481 19.1074 51.806 19.6874 51.2554 19.9933L28.9066 32.4094C28.3816 32.701 27.7432 32.701 27.2182 32.4094L4.86942 19.9933C4.31874 19.6874 3.97668 19.1074 3.97535 18.4775C3.97401 17.8475 4.31361 17.2662 4.86299 16.9579L27.2118 4.41765C27.7401 4.1212 28.3847 4.1212 28.913 4.41765L51.2618 16.9579C51.8112 17.2661 52.1508 17.8475 52.1494 18.4775ZM28.5484 8.19949C28.2466 8.03009 27.8782 8.03009 27.5763 8.19949L21.9477 11.3578C21.2697 11.7382 21.2719 12.715 21.9516 13.0924L27.098 15.95C27.6978 16.283 28.4269 16.283 29.0267 15.95L29.5984 15.6325C29.9398 15.443 29.939 14.9518 29.597 14.7633L28.1063 13.9421C27.7638 13.7533 27.7637 13.2611 28.1061 13.0722L30.4384 11.7854C30.7369 11.6207 31.0991 11.6206 31.3977 11.7852L33.4906 12.9389C33.79 13.104 34.1533 13.1034 34.4523 12.9374L34.9511 12.6605C35.2909 12.4718 35.292 11.9834 34.953 11.7932L28.5484 8.19949ZM27.098 19.9264L17.7826 14.754C17.1929 14.4266 16.4757 14.4282 15.8875 14.7583L10.8307 17.5957C10.1528 17.9761 10.1548 18.9527 10.8344 19.3302L27.0976 28.3654C27.6976 28.6987 28.4272 28.6987 29.0271 28.3654L45.2904 19.3302C45.9699 18.9527 45.972 17.9761 45.2941 17.5957L40.2373 14.7583C39.6491 14.4282 38.9318 14.4266 38.3422 14.754L29.0267 19.9264C28.4269 20.2595 27.6978 20.2595 27.098 19.9264Z" fill="black"></path><path fill-rule="evenodd" clip-rule="evenodd" d="M51.2925 16.9745C50.7617 16.6621 50.1053 16.654 49.5669 16.9531L27.2181 29.3692C26.6662 29.6758 26.324 30.2574 26.324 30.8887V58.2041C26.324 58.82 26.6499 59.3899 27.1807 59.7022C27.7115 60.0146 28.368 60.0227 28.9064 59.7236L51.2552 47.3075C51.807 47.0009 52.1493 46.4193 52.1493 45.788V18.4726C52.1493 17.8567 51.8234 17.2868 51.2925 16.9745ZM45.7215 23.0664C47.0456 22.3308 48.6728 23.2883 48.6728 24.803V43.5963C48.6728 44.3178 48.2817 44.9825 47.651 45.3329L32.7518 53.6103C31.4277 54.3459 29.8005 53.3884 29.8005 51.8737V47.99C29.8005 47.2688 30.1913 46.6042 30.8217 46.2537L42.3847 39.8248C42.9315 39.5208 43.2686 38.9424 43.2635 38.3168C43.253 37.0222 41.8632 36.2086 40.7292 36.8332L32.7454 41.2305C31.4215 41.9598 29.8005 41.002 29.8005 39.4905V33.0804C29.8005 32.3589 30.1916 31.6942 30.8223 31.3438L35.7743 28.5927C36.4364 28.2248 37.25 28.7036 37.25 29.4609V31.2758C37.25 32.5895 38.6511 33.4284 39.8091 32.808C40.3739 32.5054 40.7265 31.9166 40.7265 31.2758V27.0104C40.7265 26.2889 41.1176 25.6242 41.7483 25.2738L45.7215 23.0664Z" fill="black"></path></svg>